<svg id="Layer_1" data-name="Layer 1" xmlns="http://www.w3.org/2000/svg" viewBox="0 0 800 600"><defs><style>.cls-1{fill:#fff;}.cls-2{fill:#7ee8ca;}</style></defs><title>logo-1</title><path class="cls-1" d="M57.51,486.39c20.14,0,37.08,15.33,37.08,36.73s-16.85,36.81-37.08,36.81H36.2V486.39Zm-2,58.57c12.39,0,20.86-9.45,20.95-21.75S68,501.37,55.54,501.37H53V545Z"/><path class="cls-1" d="M115.08,539.25c0,7,5.88,9.45,9.89,9.45,5.08,0,7.31-1,11.14-5.08l11.41,5.71c-5.17,8.64-13.55,11.94-23.71,11.94-13.81,0-25.14-10.88-25.14-24.16s11.33-24.24,25.14-24.24,24.52,8.2,24.52,24.24a16.32,16.32,0,0,1-.09,2.14Zm17.83-8.73c-.72-4.82-4-7.4-8.65-7.4-5.44,0-8.47,3.2-8.74,7.4Z"/><path class="cls-1" d="M190.57,516.43l-5.17,10.34s-5.35-2.85-10.16-2.85c-3.48,0-4.91.62-4.91,2.76,0,2.41,3.21,3.12,7.14,4.37,6.06,1.87,13.9,5.26,13.9,14.62,0,13.46-12.3,15.6-21.66,15.6a27.38,27.38,0,0,1-17.65-6.15l6.42-10.79s6.24,5.26,11.32,5.26c2.23,0,4.9-.26,4.9-3.3,0-3.29-5-3.56-10.16-6.24-4.63-2.4-9.27-5.61-9.27-12.48,0-9.36,7.93-14.7,20-14.7A35,35,0,0,1,190.57,516.43Z"/><path class="cls-1" d="M216.68,495.31a9.36,9.36,0,1,1-9.36-9.36A9.36,9.36,0,0,1,216.68,495.31Zm-17.47,64.62H215V514.2H199.21Z"/><path class="cls-1" d="M237,564.84c1.69,2.76,5.52,5.88,12.39,5.88,4.37,0,11.14-2.59,11.14-10.7v-3.38c-3.39,3.74-8.74,4.63-15,4.63-13.37,0-22.73-10.79-22.73-24.16s9.36-24.24,22.73-24.24a20.9,20.9,0,0,1,14.71,5.43h.27v-4.1h15.78v47c0,15.33-11.32,23.27-26.92,23.27-9.54,0-20.51-2.14-25.32-13.29Zm13.28-17a10.28,10.28,0,0,0,10.61-10.7,10.66,10.66,0,1,0-21.31,0C239.58,543.35,243.86,547.81,250.28,547.81Z"/><path class="cls-1" d="M287,514.2h15.78V519H303c3.56-3.56,8.11-6.14,13.1-6.14,8.38,0,20.06,4.19,20.06,16.93v30.13H320.33V534.08c0-4.54-3.12-8.91-8.2-8.91-4.72,0-9.36,4.37-9.36,8.91v25.85H287Z"/><path class="cls-2" d="M370.15,512.87c15.15,0,27.28,10,27.28,24.24,0,14.09-11.5,24.16-27.28,24.16-16.49,0-27.54-10.07-27.54-24.16C342.61,522.85,354.73,512.87,370.15,512.87Zm-.09,34.94a10.28,10.28,0,0,0,10.61-10.7,10.66,10.66,0,1,0-21.31,0C359.36,543.35,363.64,547.81,370.06,547.81Z"/><path class="cls-2" d="M404.82,483.27h15.77V519h.18c3.57-3.56,8.11-6.14,13.11-6.14,8.38,0,20.05,4.19,20.05,16.93v30.13H438.16V534.08c0-4.54-3.13-8.91-8.21-8.91-4.72,0-9.36,4.37-9.36,8.91v25.85H404.82Z"/><path class="cls-1" d="M498.49,516.43l-5.17,10.34s-5.35-2.85-10.16-2.85c-3.48,0-4.91.62-4.91,2.76,0,2.41,3.21,3.12,7.14,4.37,6.06,1.87,13.9,5.26,13.9,14.62,0,13.46-12.3,15.6-21.66,15.6A27.38,27.38,0,0,1,460,555.12l6.42-10.79s6.24,5.26,11.32,5.26c2.23,0,4.9-.26,4.9-3.3,0-3.29-5-3.56-10.16-6.24-4.63-2.4-9.27-5.61-9.27-12.48,0-9.36,7.94-14.7,20-14.7A35,35,0,0,1,498.49,516.43Z"/><path class="cls-1" d="M526.56,512.87a20.8,20.8,0,0,1,15,5.7V514.2h15.78v45.73h-15.6v-5.17h-.18a20.25,20.25,0,0,1-15,6.51c-13.37,0-22.73-10.79-22.73-24.16S513.19,512.87,526.56,512.87Zm4.73,34.94a10.28,10.28,0,0,0,10.61-10.7,10.66,10.66,0,1,0-21.31,0C520.59,543.35,524.87,547.81,531.29,547.81Z"/><path class="cls-1" d="M582.89,536c0,9,2.4,12.48,9,12.48s9-3.47,9-12.48V514.2h15.78v25.59c0,15.33-7.67,21.48-24.78,21.48s-24.78-6.15-24.78-21.48V514.2h15.78Z"/><path class="cls-1" d="M626.46,514.2h15.78v6.6h.18s5-7.93,14-7.93a19,19,0,0,1,10,2.85l-6.6,13.37a13.3,13.3,0,0,0-8.2-2.5c-8.2,0-9.36,8.12-9.36,9.27v24.07H626.46Z"/><path class="cls-1" d="M689.57,512.87a20.76,20.76,0,0,1,15,5.7V514.2h15.78v45.73h-15.6v-5.17h-.18a20.21,20.21,0,0,1-15,6.51c-13.37,0-22.73-10.79-22.73-24.16S676.2,512.87,689.57,512.87Zm4.72,34.94a10.28,10.28,0,0,0,10.61-10.7,10.65,10.65,0,1,0-21.3,0C683.6,543.35,687.88,547.81,694.29,547.81Z"/><path class="cls-1" d="M765.86,516.43l-5.17,10.34s-5.35-2.85-10.16-2.85c-3.48,0-4.9.62-4.9,2.76,0,2.41,3.21,3.12,7.13,4.37,6.06,1.87,13.9,5.26,13.9,14.62,0,13.46-12.3,15.6-21.66,15.6a27.38,27.38,0,0,1-17.65-6.15l6.42-10.79s6.24,5.26,11.32,5.26c2.23,0,4.9-.26,4.9-3.3,0-3.29-5-3.56-10.16-6.24-4.63-2.4-9.27-5.61-9.27-12.48,0-9.36,7.93-14.7,20-14.7A35,35,0,0,1,765.86,516.43Z"/><polygon class="cls-2" points="319.04 406.74 319.04 446.56 377.44 446.56 377.44 404.09 319.04 406.74"/><path class="cls-2" d="M791.58,153.26s-435.31,2.65-464.5,0S186.4,251.47,165.16,251.47s-45.12-21.24-63.7-15.93-87.59,47.78-90.24,55.74-8,21.23,8,26.54,98.21-2.65,106.17,2.66,31.85,21.23,31.85,31.85v90.24l58.4,2.66-4-54.41s-53.08-58.4-13.27-103.52c0,0-21.23,61.05,31.85,100.86V443.9h53.09v-77s15.93,45.12,87.59,23.89c0,0-71.66-63.71-15.92-140.68,0,0-39.82,79.63,37.16,132.71v61h90.24V380.2s23.89-8,45.12-66.36C527.47,313.84,800.86,165.2,791.58,153.26ZM68.28,293.93c-5.13,0-9.29-6.53-9.29-14.59s4.16-14.6,9.29-14.6,9.29,6.53,9.29,14.6S73.41,293.93,68.28,293.93Z"/><path class="cls-2" d="M14.36,49.74l-.4-.16-.09.16Z"/><path class="cls-2" d="M13.87,49.74l.55,0-.06,0Z"/><path class="cls-2" d="M125.35,49.74l-.44-.75a15.75,15.75,0,0,0-1.76.75Z"/><path class="cls-2" d="M122.93,49.86l2.42-.12h-2.2Z"/><path class="cls-2" d="M515.42,24.66l.2,57.86A2.61,2.61,0,0,0,517.37,85a13.19,13.19,0,0,1,6.24,20.5,13.46,13.46,0,0,1-2.33,2.38,13,13,0,0,1-16.46,0,13.81,13.81,0,0,1-2.33-2.38A13.19,13.19,0,0,1,508.73,85a2.63,2.63,0,0,0,1.76-2.46l.2-57.86a2.64,2.64,0,0,0-4.91-1.34l-48.38,82,.4.16.07,0c7.69,3.06,15.78,11.34,21,21.14A45.38,45.38,0,0,1,484.07,148a2.59,2.59,0,0,0,2.63,2.58h52.57a2.6,2.6,0,0,0,2.63-2.48,46.84,46.84,0,0,1,5.58-20.38c4.86-9.13,11.77-18.4,18.9-22.14l.21-.12a15.75,15.75,0,0,1,1.76-.75l-48-81.41A2.63,2.63,0,0,0,515.42,24.66Z"/><path class="cls-2" d="M221.9,77.48l27.43,42.24a2.26,2.26,0,0,0,2.44,1,11.54,11.54,0,1,1,1.61,22.66,12,12,0,0,1-2.83-.64,11.48,11.48,0,0,1-5.1-18,2.26,2.26,0,0,0,.12-2.62L218.43,79.71A2.29,2.29,0,0,0,214.21,81l3.28,82.82.36-.07.06,0c7.07-1.39,16.9.86,25.34,5.57a39.46,39.46,0,0,1,13.88,13.18,2.27,2.27,0,0,0,3.15.65l38.46-24.79a2.26,2.26,0,0,0,.75-3.06A41,41,0,0,1,294,137.78c-.75-9-.06-19,3.39-25.11a1.74,1.74,0,0,1,.1-.19,15.12,15.12,0,0,1,.93-1.38L224.85,74.18A2.29,2.29,0,0,0,221.9,77.48Z"/><path class="cls-2" d="M174.37,166.52l17.51,24.31a1.35,1.35,0,0,0,1.48.51,6.83,6.83,0,0,1,8.8,6.76,7.09,7.09,0,0,1-.27,1.7,6.73,6.73,0,0,1-6.93,4.95,6.6,6.6,0,0,1-1.7-.3,6.82,6.82,0,0,1-3.54-10.51,1.37,1.37,0,0,0,0-1.57l-17.34-24.43a1.36,1.36,0,0,0-2.47.91L174.22,218l.21-.05h0c4.16-1,10.06,0,15.22,2.58a23.39,23.39,0,0,1,8.62,7.44,1.35,1.35,0,0,0,1.89.29l22.15-15.83a1.36,1.36,0,0,0,.36-1.84,24.16,24.16,0,0,1-3.79-10.27c-.7-5.3-.58-11.29,1.29-15a.61.61,0,0,0,0-.12c.16-.3.34-.58.52-.85L176,164.47A1.37,1.37,0,0,0,174.37,166.52Z"/><path class="cls-2" d="M385.62,18.33l.21,60.77a2.74,2.74,0,0,0,1.84,2.58,13.92,13.92,0,0,1,9.4,13.17,13.94,13.94,0,0,1-27.87,0,13.92,13.92,0,0,1,9.4-13.17,2.74,2.74,0,0,0,1.84-2.58l.21-60.77a2.77,2.77,0,0,0-5.15-1.41l-50.81,86.13.41.16.07,0c8.08,3.21,16.58,11.91,22.06,22.21a47.53,47.53,0,0,1,5.46,22.44,2.73,2.73,0,0,0,2.77,2.71h55.21a2.73,2.73,0,0,0,2.76-2.6,49.29,49.29,0,0,1,5.86-21.41c5.1-9.59,12.37-19.32,19.85-23.25l.22-.13a18.35,18.35,0,0,1,1.85-.79l-50.44-85.5A2.77,2.77,0,0,0,385.62,18.33Z"/><path class="cls-2" d="M607.72,77.81l.12,33.44a1.5,1.5,0,0,0,1,1.42,7.68,7.68,0,0,1,5.18,7.25,7.58,7.58,0,0,1-1.57,4.6,7.66,7.66,0,0,1-12.21,0,7.58,7.58,0,0,1-1.57-4.6,7.68,7.68,0,0,1,5.18-7.25,1.5,1.5,0,0,0,1-1.42L605,77.81a1.53,1.53,0,0,0-2.84-.77l-28,47.39.23.09,0,0c4.44,1.77,9.12,6.55,12.14,12.22a26.28,26.28,0,0,1,3,12.35,1.5,1.5,0,0,0,1.52,1.49h30.39a1.5,1.5,0,0,0,1.52-1.43,27.12,27.12,0,0,1,3.22-11.78c2.81-5.28,6.81-10.63,10.92-12.8l.13-.07a8.74,8.74,0,0,1,1-.43L610.56,77A1.53,1.53,0,0,0,607.72,77.81Z"/><path class="cls-2" d="M675.12,98.61l.08,23.89a1.08,1.08,0,0,0,.72,1A5.45,5.45,0,0,1,678.5,132a5.93,5.93,0,0,1-1,1,5.38,5.38,0,0,1-6.8,0,5.93,5.93,0,0,1-1-1,5.45,5.45,0,0,1,2.58-8.47,1.08,1.08,0,0,0,.72-1l.08-23.89a1.09,1.09,0,0,0-2-.56l-20,33.86.16.07h0c3.17,1.26,6.51,4.68,8.67,8.72a18.78,18.78,0,0,1,2.14,8.83,1.08,1.08,0,0,0,1.09,1.06H685a1.08,1.08,0,0,0,1.09-1,19.47,19.47,0,0,1,2.3-8.42c2-3.76,4.86-7.59,7.8-9.13l.09-.05a5.79,5.79,0,0,1,.73-.32L677.14,98.05A1.09,1.09,0,0,0,675.12,98.61Z"/></svg>